<svg width="319" height="80" viewBox="0 0 319 80" fill="none" xmlns="http://www.w3.org/2000/svg">
<g id="TrainingFactory" filter="url(#filter0_d_25_5)">
<path d="M30.8556 56H26.4556V31.16H18.5356V27.44H38.7356V31.16H30.8556V56ZM50.7497 34.04C51.0964 34.04 51.483 34.0667 51.9097 34.12C52.3364 34.1467 52.6964 34.1867 52.9897 34.24L52.5497 38.2C52.2564 38.12 51.923 38.0533 51.5497 38C51.1764 37.9467 50.803 37.92 50.4297 37.92C49.7097 37.92 49.0164 38.08 48.3497 38.4C47.683 38.6933 47.083 39.1333 46.5497 39.72C46.0164 40.28 45.5897 40.9733 45.2697 41.8C44.9497 42.6267 44.7897 43.5733 44.7897 44.64V56H40.4697V34.44H43.8697L44.4297 38.28H44.6697C45.0697 37.5067 45.563 36.8 46.1497 36.16C46.763 35.52 47.4564 35.0133 48.2297 34.64C49.003 34.24 49.843 34.04 50.7497 34.04ZM64.0594 34.04C66.5927 34.04 68.4994 34.64 69.7794 35.84C71.086 37.0133 71.7394 38.8667 71.7394 41.4V56H68.6594L67.8194 53H67.6594C67.046 53.7733 66.4327 54.4133 65.8194 54.92C65.2327 55.4267 64.5394 55.8 63.7394 56.04C62.966 56.28 62.006 56.4 60.8594 56.4C59.6594 56.4 58.5794 56.1733 57.6194 55.72C56.6594 55.24 55.8994 54.52 55.3394 53.56C54.7794 52.5733 54.4994 51.3467 54.4994 49.88C54.4994 47.6933 55.2727 46.0267 56.8194 44.88C58.3927 43.7333 60.7794 43.1067 63.9794 43L67.4194 42.88V41.68C67.4194 40.08 67.086 38.96 66.4194 38.32C65.7794 37.68 64.8727 37.36 63.6994 37.36C62.7127 37.36 61.7394 37.52 60.7794 37.84C59.8194 38.16 58.886 38.5467 57.9794 39L56.6594 35.92C57.646 35.3867 58.766 34.9467 60.0194 34.6C61.2994 34.2267 62.646 34.04 64.0594 34.04ZM64.8194 45.72C62.6327 45.8267 61.1127 46.24 60.2594 46.96C59.406 47.6533 58.9794 48.64 58.9794 49.92C58.9794 51.04 59.2727 51.8533 59.8594 52.36C60.4727 52.8667 61.2594 53.12 62.2194 53.12C63.686 53.12 64.9127 52.6533 65.8994 51.72C66.9127 50.7867 67.4194 49.3867 67.4194 47.52V45.64L64.8194 45.72ZM82.0563 34.44V56H77.6963V34.44H82.0563ZM79.9362 26.24C80.5763 26.24 81.1363 26.4267 81.6163 26.8C82.0963 27.1733 82.3363 27.8 82.3363 28.68C82.3363 29.5333 82.0963 30.16 81.6163 30.56C81.1363 30.9333 80.5763 31.12 79.9362 31.12C79.2429 31.12 78.6563 30.9333 78.1763 30.56C77.6963 30.16 77.4563 29.5333 77.4563 28.68C77.4563 27.8 77.6963 27.1733 78.1763 26.8C78.6563 26.4267 79.2429 26.24 79.9362 26.24ZM98.6859 34.04C101.033 34.04 102.833 34.6667 104.086 35.92C105.366 37.1733 106.006 39.1867 106.006 41.96V56H101.686V42.56C101.686 40.88 101.353 39.6267 100.686 38.8C100.046 37.9467 99.0459 37.52 97.6859 37.52C95.6859 37.52 94.3126 38.1733 93.5659 39.48C92.8193 40.7867 92.4459 42.6667 92.4459 45.12V56H88.1259V34.44H91.5259L92.1259 37.32H92.3659C92.8193 36.5733 93.3659 35.96 94.0059 35.48C94.6459 35 95.3659 34.64 96.1659 34.4C96.9659 34.16 97.8059 34.04 98.6859 34.04ZM116.314 34.44V56H111.954V34.44H116.314ZM114.194 26.24C114.834 26.24 115.394 26.4267 115.874 26.8C116.354 27.1733 116.594 27.8 116.594 28.68C116.594 29.5333 116.354 30.16 115.874 30.56C115.394 30.9333 114.834 31.12 114.194 31.12C113.501 31.12 112.914 30.9333 112.434 30.56C111.954 30.16 111.714 29.5333 111.714 28.68C111.714 27.8 111.954 27.1733 112.434 26.8C112.914 26.4267 113.501 26.24 114.194 26.24ZM132.944 34.04C135.29 34.04 137.09 34.6667 138.344 35.92C139.624 37.1733 140.264 39.1867 140.264 41.96V56H135.944V42.56C135.944 40.88 135.61 39.6267 134.944 38.8C134.304 37.9467 133.304 37.52 131.944 37.52C129.944 37.52 128.57 38.1733 127.824 39.48C127.077 40.7867 126.704 42.6667 126.704 45.12V56H122.384V34.44H125.784L126.384 37.32H126.624C127.077 36.5733 127.624 35.96 128.264 35.48C128.904 35 129.624 34.64 130.424 34.4C131.224 34.16 132.064 34.04 132.944 34.04ZM153.212 34.04C154.519 34.04 155.679 34.3067 156.692 34.84C157.732 35.3733 158.612 36.1867 159.332 37.28H159.492L159.972 34.44H163.532V56.28C163.532 58.3067 163.185 60.0133 162.492 61.4C161.799 62.7867 160.745 63.8267 159.332 64.52C157.919 65.24 156.132 65.6 153.972 65.6C152.479 65.6 151.119 65.4933 149.892 65.28C148.692 65.0667 147.572 64.7333 146.532 64.28V60.56C147.225 60.9333 147.972 61.24 148.772 61.48C149.572 61.7467 150.412 61.9333 151.292 62.04C152.199 62.1733 153.132 62.24 154.092 62.24C155.745 62.24 157.012 61.7333 157.892 60.72C158.799 59.7333 159.252 58.3333 159.252 56.52V55.8C159.252 55.4533 159.265 55 159.292 54.44C159.319 53.8533 159.345 53.4267 159.372 53.16H159.212C158.545 54.28 157.705 55.1067 156.692 55.64C155.705 56.1467 154.532 56.4 153.172 56.4C150.665 56.4 148.692 55.4267 147.252 53.48C145.812 51.5067 145.092 48.7733 145.092 45.28C145.092 42.9333 145.412 40.9333 146.052 39.28C146.719 37.6 147.652 36.3067 148.852 35.4C150.079 34.4933 151.532 34.04 153.212 34.04ZM154.252 37.56C153.239 37.56 152.385 37.8667 151.692 38.48C150.999 39.0667 150.465 39.9333 150.092 41.08C149.745 42.2267 149.572 43.64 149.572 45.32C149.572 47.8267 149.972 49.7333 150.772 51.04C151.572 52.3467 152.745 53 154.292 53C155.199 53 155.972 52.8667 156.612 52.6C157.252 52.3333 157.772 51.92 158.172 51.36C158.599 50.8 158.905 50.0933 159.092 49.24C159.305 48.36 159.412 47.3067 159.412 46.08V45.28C159.412 43.44 159.225 41.96 158.852 40.84C158.505 39.6933 157.945 38.8667 157.172 38.36C156.425 37.8267 155.452 37.56 154.252 37.56Z" fill="#E2FFE2"/>
<path d="M174.45 56H170.05V27.44H185.29V31.12H174.45V40.44H184.61V44.12H174.45V56ZM197.653 34.04C200.186 34.04 202.093 34.64 203.373 35.84C204.68 37.0133 205.333 38.8667 205.333 41.4V56H202.253L201.413 53H201.253C200.64 53.7733 200.026 54.4133 199.413 54.92C198.826 55.4267 198.133 55.8 197.333 56.04C196.56 56.28 195.6 56.4 194.453 56.4C193.253 56.4 192.173 56.1733 191.213 55.72C190.253 55.24 189.493 54.52 188.933 53.56C188.373 52.5733 188.093 51.3467 188.093 49.88C188.093 47.6933 188.866 46.0267 190.413 44.88C191.986 43.7333 194.373 43.1067 197.573 43L201.013 42.88V41.68C201.013 40.08 200.68 38.96 200.013 38.32C199.373 37.68 198.466 37.36 197.293 37.36C196.306 37.36 195.333 37.52 194.373 37.84C193.413 38.16 192.48 38.5467 191.573 39L190.253 35.92C191.24 35.3867 192.36 34.9467 193.613 34.6C194.893 34.2267 196.24 34.04 197.653 34.04ZM198.413 45.72C196.226 45.8267 194.706 46.24 193.853 46.96C193 47.6533 192.573 48.64 192.573 49.92C192.573 51.04 192.866 51.8533 193.453 52.36C194.066 52.8667 194.853 53.12 195.813 53.12C197.28 53.12 198.506 52.6533 199.493 51.72C200.506 50.7867 201.013 49.3867 201.013 47.52V45.64L198.413 45.72ZM219.65 56.4C217.757 56.4 216.09 56.0133 214.65 55.24C213.237 54.4667 212.13 53.2667 211.33 51.64C210.557 49.9867 210.17 47.8933 210.17 45.36C210.17 42.6933 210.597 40.5333 211.45 38.88C212.303 37.2267 213.463 36.0133 214.93 35.24C216.397 34.44 218.077 34.04 219.97 34.04C221.09 34.04 222.157 34.1733 223.17 34.44C224.21 34.68 225.063 34.96 225.73 35.28L224.41 38.68C223.743 38.4133 223.023 38.1733 222.25 37.96C221.477 37.7467 220.743 37.64 220.05 37.64C218.823 37.64 217.81 37.9333 217.01 38.52C216.237 39.08 215.65 39.9333 215.25 41.08C214.85 42.2 214.65 43.6133 214.65 45.32C214.65 46.9467 214.85 48.32 215.25 49.44C215.65 50.56 216.237 51.4133 217.01 52C217.81 52.56 218.77 52.84 219.89 52.84C220.983 52.84 221.957 52.7067 222.81 52.44C223.69 52.1733 224.503 51.8267 225.25 51.4V55.08C224.503 55.5333 223.69 55.8667 222.81 56.08C221.93 56.2933 220.877 56.4 219.65 56.4ZM237.563 52.96C238.123 52.96 238.669 52.9067 239.203 52.8C239.736 52.6933 240.203 52.5733 240.603 52.44V55.64C240.149 55.8533 239.549 56.0267 238.803 56.16C238.083 56.32 237.323 56.4 236.523 56.4C235.403 56.4 234.376 56.2 233.443 55.8C232.509 55.4 231.763 54.7067 231.203 53.72C230.643 52.7333 230.363 51.36 230.363 49.6V37.68H227.603V35.76L230.563 34.16L232.043 29.6H234.723V34.44H240.443V37.68H234.723V49.52C234.723 50.6933 234.989 51.56 235.523 52.12C236.056 52.68 236.736 52.96 237.563 52.96ZM262.73 45.2C262.73 46.9867 262.504 48.5733 262.05 49.96C261.597 51.3467 260.944 52.52 260.09 53.48C259.264 54.44 258.25 55.1733 257.05 55.68C255.85 56.16 254.504 56.4 253.01 56.4C251.65 56.4 250.384 56.16 249.21 55.68C248.037 55.1733 247.024 54.44 246.17 53.48C245.317 52.52 244.65 51.3467 244.17 49.96C243.717 48.5733 243.49 46.9733 243.49 45.16C243.49 42.7867 243.877 40.7733 244.65 39.12C245.424 37.4667 246.53 36.2133 247.97 35.36C249.437 34.48 251.17 34.04 253.17 34.04C255.037 34.04 256.69 34.48 258.13 35.36C259.57 36.2133 260.69 37.4667 261.49 39.12C262.317 40.7733 262.73 42.8 262.73 45.2ZM247.97 45.2C247.97 46.8 248.144 48.1867 248.49 49.36C248.864 50.5067 249.424 51.3867 250.17 52C250.944 52.6133 251.917 52.92 253.09 52.92C254.29 52.92 255.264 52.6133 256.01 52C256.784 51.3867 257.344 50.5067 257.69 49.36C258.064 48.1867 258.25 46.8 258.25 45.2C258.25 43.5467 258.064 42.16 257.69 41.04C257.317 39.92 256.757 39.0667 256.01 38.48C255.264 37.8667 254.277 37.56 253.05 37.56C251.264 37.56 249.97 38.2267 249.17 39.56C248.37 40.8933 247.97 42.7733 247.97 45.2ZM277.937 34.04C278.284 34.04 278.671 34.0667 279.097 34.12C279.524 34.1467 279.884 34.1867 280.177 34.24L279.737 38.2C279.444 38.12 279.111 38.0533 278.737 38C278.364 37.9467 277.991 37.92 277.617 37.92C276.897 37.92 276.204 38.08 275.537 38.4C274.871 38.6933 274.271 39.1333 273.737 39.72C273.204 40.28 272.777 40.9733 272.457 41.8C272.137 42.6267 271.977 43.5733 271.977 44.64V56H267.657V34.44H271.057L271.617 38.28H271.857C272.257 37.5067 272.751 36.8 273.337 36.16C273.951 35.52 274.644 35.0133 275.417 34.64C276.191 34.24 277.031 34.04 277.937 34.04ZM280.829 34.44H285.469L289.589 46.68C289.802 47.2933 289.989 47.8933 290.149 48.48C290.336 49.0667 290.482 49.6533 290.589 50.24C290.722 50.8 290.829 51.36 290.909 51.92H291.029C291.162 51.2267 291.349 50.4133 291.589 49.48C291.829 48.52 292.096 47.5733 292.389 46.64L296.309 34.44H300.989L292.349 58.92C291.842 60.3067 291.229 61.4933 290.509 62.48C289.816 63.4933 288.962 64.2667 287.949 64.8C286.962 65.3333 285.776 65.6 284.389 65.6C283.802 65.6 283.269 65.56 282.789 65.48C282.336 65.4267 281.936 65.36 281.589 65.28V61.92C281.856 61.9733 282.189 62.0267 282.589 62.08C282.989 62.1333 283.402 62.16 283.829 62.16C284.602 62.16 285.269 62 285.829 61.68C286.389 61.36 286.856 60.9067 287.229 60.32C287.602 59.76 287.909 59.0933 288.149 58.32L288.949 56L280.829 34.44Z" fill="#00CE00"/>
<path d="M30.8556 56V56.65H31.5056V56H30.8556ZM26.4556 56H25.8056V56.65H26.4556V56ZM26.4556 31.16H27.1056V30.51H26.4556V31.16ZM18.5356 31.16H17.8856V31.81H18.5356V31.16ZM18.5356 27.44V26.79H17.8856V27.44H18.5356ZM38.7356 27.44H39.3856V26.79H38.7356V27.44ZM38.7356 31.16V31.81H39.3856V31.16H38.7356ZM30.8556 31.16V30.51H30.2056V31.16H30.8556ZM30.8556 55.35H26.4556V56.65H30.8556V55.35ZM27.1056 56V31.16H25.8056V56H27.1056ZM26.4556 30.51H18.5356V31.81H26.4556V30.51ZM19.1856 31.16V27.44H17.8856V31.16H19.1856ZM18.5356 28.09H38.7356V26.79H18.5356V28.09ZM38.0856 27.44V31.16H39.3856V27.44H38.0856ZM38.7356 30.51H30.8556V31.81H38.7356V30.51ZM30.2056 31.16V56H31.5056V31.16H30.2056ZM51.9097 34.12L51.8291 34.765L51.849 34.7675L51.8691 34.7687L51.9097 34.12ZM52.9897 34.24L53.6357 34.3118L53.7027 33.709L53.106 33.6005L52.9897 34.24ZM52.5497 38.2L52.3787 38.8271L53.1118 39.027L53.1957 38.2718L52.5497 38.2ZM48.3497 38.4L48.6115 38.995L48.6213 38.9906L48.631 38.986L48.3497 38.4ZM46.5497 39.72L47.0204 40.1683L47.0256 40.1628L47.0306 40.1572L46.5497 39.72ZM45.2697 41.8L44.6635 41.5654L44.6635 41.5654L45.2697 41.8ZM44.7897 56V56.65H45.4397V56H44.7897ZM40.4697 56H39.8197V56.65H40.4697V56ZM40.4697 34.44V33.79H39.8197V34.44H40.4697ZM43.8697 34.44L44.5129 34.3462L44.4318 33.79H43.8697V34.44ZM44.4297 38.28L43.7865 38.3738L43.8676 38.93H44.4297V38.28ZM44.6697 38.28V38.93H45.0653L45.247 38.5786L44.6697 38.28ZM46.1497 36.16L45.6804 35.7103L45.6754 35.7155L45.6705 35.7208L46.1497 36.16ZM48.2297 34.64L48.5123 35.2254L48.5203 35.2215L48.5283 35.2173L48.2297 34.64ZM50.7497 34.69C51.0639 34.69 51.4231 34.7142 51.8291 34.765L51.9903 33.475C51.543 33.4191 51.1288 33.39 50.7497 33.39V34.69ZM51.8691 34.7687C52.2803 34.7944 52.6133 34.8322 52.8734 34.8795L53.106 33.6005C52.7794 33.5411 52.3924 33.4989 51.9502 33.4713L51.8691 34.7687ZM52.3437 34.1682L51.9037 38.1282L53.1957 38.2718L53.6357 34.3118L52.3437 34.1682ZM52.7207 37.5729C52.3961 37.4844 52.0356 37.4128 51.6416 37.3565L51.4578 38.6435C51.8105 38.6939 52.1166 38.7556 52.3787 38.8271L52.7207 37.5729ZM51.6416 37.3565C51.2381 37.2989 50.8341 37.27 50.4297 37.27V38.57C50.772 38.57 51.1146 38.5944 51.4578 38.6435L51.6416 37.3565ZM50.4297 37.27C49.6096 37.27 48.8204 37.4531 48.0684 37.814L48.631 38.986C49.2123 38.7069 49.8097 38.57 50.4297 38.57V37.27ZM48.0879 37.805C47.3308 38.1382 46.6578 38.6348 46.0687 39.2828L47.0306 40.1572C47.5082 39.6319 48.0352 39.2485 48.6115 38.995L48.0879 37.805ZM46.079 39.2717C45.479 39.9017 45.0098 40.6708 44.6635 41.5654L45.8759 42.0346C46.1696 41.2759 46.5537 40.6583 47.0204 40.1683L46.079 39.2717ZM44.6635 41.5654C44.3093 42.4804 44.1397 43.509 44.1397 44.64H45.4397C45.4397 43.6377 45.5901 42.773 45.8759 42.0346L44.6635 41.5654ZM44.1397 44.64V56H45.4397V44.64H44.1397ZM44.7897 55.35H40.4697V56.65H44.7897V55.35ZM41.1197 56V34.44H39.8197V56H41.1197ZM40.4697 35.09H43.8697V33.79H40.4697V35.09ZM43.2265 34.5338L43.7865 38.3738L45.0729 38.1862L44.5129 34.3462L43.2265 34.5338ZM44.4297 38.93H44.6697V37.63H44.4297V38.93ZM45.247 38.5786C45.6207 37.8561 46.0811 37.1968 46.6288 36.5992L45.6705 35.7208C45.045 36.4032 44.5186 37.1572 44.0923 37.9814L45.247 38.5786ZM46.619 36.6097C47.1804 36.0239 47.811 35.5639 48.5123 35.2254L47.9471 34.0546C47.1017 34.4628 46.3456 35.0161 45.6804 35.7103L46.619 36.6097ZM48.5283 35.2173C49.2055 34.8671 49.9425 34.69 50.7497 34.69V33.39C49.7435 33.39 48.8006 33.6129 47.9311 34.0627L48.5283 35.2173ZM69.7794 35.84L69.3347 36.3143L69.3451 36.3236L69.7794 35.84ZM71.7394 56V56.65H72.3894V56H71.7394ZM68.6594 56L68.0334 56.1753L68.1664 56.65H68.6594V56ZM67.8194 53L68.4453 52.8247L68.3124 52.35H67.8194V53ZM67.6594 53V52.35H67.3453L67.1501 52.5961L67.6594 53ZM65.8194 54.92L65.4054 54.4189L65.3999 54.4234L65.3945 54.4281L65.8194 54.92ZM63.7394 56.04L63.5526 55.4174L63.5467 55.4192L63.7394 56.04ZM57.6194 55.72L57.3287 56.3014L57.3352 56.3046L57.3418 56.3078L57.6194 55.72ZM55.3394 53.56L54.774 53.8809L54.7779 53.8875L55.3394 53.56ZM56.8194 44.88L56.4365 44.3547L56.4323 44.3578L56.8194 44.88ZM63.9794 43L64.001 43.6496L64.002 43.6496L63.9794 43ZM67.4194 42.88L67.442 43.5296L68.0694 43.5077V42.88H67.4194ZM66.4194 38.32L65.9597 38.7797L65.9692 38.7889L66.4194 38.32ZM60.7794 37.84L60.9849 38.4566L60.9849 38.4566L60.7794 37.84ZM57.9794 39L57.3819 39.256L57.6535 39.8897L58.2701 39.5814L57.9794 39ZM56.6594 35.92L56.3503 35.3482L55.8281 35.6305L56.0619 36.176L56.6594 35.92ZM60.0194 34.6L60.1927 35.2265L60.2014 35.224L60.0194 34.6ZM64.8194 45.72L64.7994 45.0702L64.7877 45.0708L64.8194 45.72ZM60.2594 46.96L60.6693 47.4646L60.6785 47.4568L60.2594 46.96ZM59.8594 52.36L59.4345 52.8519L59.4399 52.8566L59.4454 52.8611L59.8594 52.36ZM65.8994 51.72L65.459 51.2419L65.4527 51.2478L65.8994 51.72ZM67.4194 45.64H68.0694V44.9697L67.3994 44.9903L67.4194 45.64ZM64.0594 34.69C66.5004 34.69 68.2196 35.2687 69.3348 36.3142L70.2239 35.3658C68.7792 34.0113 66.685 33.39 64.0594 33.39V34.69ZM69.3451 36.3236C70.4627 37.3272 71.0894 38.9678 71.0894 41.4H72.3894C72.3894 38.7655 71.7093 36.6994 70.2137 35.3564L69.3451 36.3236ZM71.0894 41.4V56H72.3894V41.4H71.0894ZM71.7394 55.35H68.6594V56.65H71.7394V55.35ZM69.2853 55.8247L68.4453 52.8247L67.1934 53.1753L68.0334 56.1753L69.2853 55.8247ZM67.8194 52.35H67.6594V53.65H67.8194V52.35ZM67.1501 52.5961C66.5586 53.3419 65.9765 53.9471 65.4054 54.4189L66.2333 55.4211C66.889 54.8795 67.5335 54.2048 68.1686 53.4039L67.1501 52.5961ZM65.3945 54.4281C64.8824 54.8704 64.2718 55.2016 63.5526 55.4174L63.9262 56.6626C64.8069 56.3984 65.583 55.983 66.2442 55.4119L65.3945 54.4281ZM63.5467 55.4192C62.8557 55.6336 61.9656 55.75 60.8594 55.75V57.05C62.0465 57.05 63.0763 56.9264 63.932 56.6608L63.5467 55.4192ZM60.8594 55.75C59.7428 55.75 58.7595 55.5395 57.8969 55.1322L57.3418 56.3078C58.3993 56.8071 59.576 57.05 60.8594 57.05V55.75ZM57.9101 55.1386C57.0672 54.7172 56.3996 54.0874 55.9008 53.2325L54.7779 53.8875C55.3992 54.9526 56.2515 55.7628 57.3287 56.3014L57.9101 55.1386ZM55.9047 53.2392C55.4141 52.3749 55.1494 51.2663 55.1494 49.88H53.8494C53.8494 51.427 54.1446 52.7718 54.7741 53.8808L55.9047 53.2392ZM55.1494 49.88C55.1494 47.8672 55.8493 46.4083 57.2065 45.4022L56.4323 44.3578C54.6961 45.645 53.8494 47.5195 53.8494 49.88H55.1494ZM57.2022 45.4053C58.6222 44.3704 60.8552 43.7545 64.001 43.6496L63.9577 42.3504C60.7035 42.4588 58.1632 43.0963 56.4365 44.3547L57.2022 45.4053ZM64.002 43.6496L67.442 43.5296L67.3967 42.2304L63.9567 42.3504L64.002 43.6496ZM68.0694 42.88V41.68H66.7694V42.88H68.0694ZM68.0694 41.68C68.0694 40.0241 67.7306 38.6778 66.8695 37.8511L65.9692 38.7889C66.4414 39.2422 66.7694 40.1359 66.7694 41.68H68.0694ZM66.879 37.8604C66.084 37.0654 64.9918 36.71 63.6994 36.71V38.01C64.7536 38.01 65.4748 38.2946 65.9598 38.7796L66.879 37.8604ZM63.6994 36.71C62.6411 36.71 61.5984 36.8818 60.5738 37.2234L60.9849 38.4566C61.8804 38.1582 62.7844 38.01 63.6994 38.01V36.71ZM60.5738 37.2234C59.5846 37.5531 58.6228 37.9516 57.6887 38.4186L58.2701 39.5814C59.1493 39.1418 60.0542 38.7669 60.9849 38.4566L60.5738 37.2234ZM58.5768 38.744L57.2568 35.664L56.0619 36.176L57.3819 39.256L58.5768 38.744ZM56.9685 36.4918C57.9059 35.9851 58.9792 35.5621 60.1927 35.2265L59.8461 33.9735C58.5529 34.3312 57.3862 34.7882 56.3503 35.3482L56.9685 36.4918ZM60.2014 35.224C61.4188 34.8689 62.7039 34.69 64.0594 34.69V33.39C62.5881 33.39 61.1799 33.5844 59.8374 33.976L60.2014 35.224ZM64.7877 45.0708C62.5744 45.1787 60.8664 45.5973 59.8402 46.4632L60.6785 47.4568C61.359 46.8827 62.691 46.4746 64.851 46.3692L64.7877 45.0708ZM59.8495 46.4555C58.8184 47.2933 58.3294 48.4802 58.3294 49.92H59.6294C59.6294 48.7998 59.9937 48.0134 60.6693 47.4645L59.8495 46.4555ZM58.3294 49.92C58.3294 51.1426 58.6505 52.1748 59.4345 52.8519L60.2842 51.8681C59.895 51.5319 59.6294 50.9374 59.6294 49.92H58.3294ZM59.4454 52.8611C60.198 53.4828 61.1407 53.77 62.2194 53.77V52.47C61.378 52.47 60.7474 52.2505 60.2733 51.8589L59.4454 52.8611ZM62.2194 53.77C63.8377 53.77 65.2285 53.2493 66.3461 52.1922L65.4527 51.2478C64.5969 52.0573 63.5344 52.47 62.2194 52.47V53.77ZM66.3397 52.1981C67.5291 51.1026 68.0694 49.5012 68.0694 47.52H66.7694C66.7694 49.2721 66.2963 50.4707 65.459 51.2419L66.3397 52.1981ZM68.0694 47.52V45.64H66.7694V47.52H68.0694ZM67.3994 44.9903L64.7994 45.0703L64.8394 46.3697L67.4394 46.2897L67.3994 44.9903ZM82.0563 34.44H82.7063V33.79H82.0563V34.44ZM82.0563 56V56.65H82.7063V56H82.0563ZM77.6963 56H77.0463V56.65H77.6963V56ZM77.6963 34.44V33.79H77.0463V34.44H77.6963ZM81.6163 26.8L82.0153 26.2869L82.0153 26.2869L81.6163 26.8ZM81.6163 30.56L82.0153 31.0731L82.024 31.0664L82.0324 31.0593L81.6163 30.56ZM78.1763 30.56L77.7601 31.0593L77.7685 31.0664L77.7772 31.0731L78.1763 30.56ZM78.1763 26.8L78.5753 27.3131L78.5753 27.3131L78.1763 26.8ZM81.4063 34.44V56H82.7063V34.44H81.4063ZM82.0563 55.35H77.6963V56.65H82.0563V55.35ZM78.3463 56V34.44H77.0463V56H78.3463ZM77.6963 35.09H82.0563V33.79H77.6963V35.09ZM79.9362 26.89C80.4398 26.89 80.8575 27.0334 81.2172 27.3131L82.0153 26.2869C81.415 25.82 80.7127 25.59 79.9362 25.59V26.89ZM81.2172 27.3131C81.4773 27.5153 81.6863 27.9069 81.6863 28.68H82.9863C82.9863 27.6931 82.7152 26.8313 82.0153 26.2869L81.2172 27.3131ZM81.6863 28.68C81.6863 29.4149 81.4829 29.825 81.2001 30.0607L82.0324 31.0593C82.7096 30.495 82.9863 29.6518 82.9863 28.68H81.6863ZM81.2172 30.0469C80.8575 30.3266 80.4398 30.47 79.9362 30.47V31.77C80.7127 31.77 81.415 31.54 82.0153 31.0731L81.2172 30.0469ZM79.9362 30.47C79.3662 30.47 78.9255 30.3193 78.5753 30.0469L77.7772 31.0731C78.387 31.5474 79.1196 31.77 79.9362 31.77V30.47ZM78.5924 30.0607C78.3096 29.825 78.1062 29.4149 78.1062 28.68H76.8063C76.8063 29.6518 77.0829 30.495 77.7601 31.0593L78.5924 30.0607ZM78.1062 28.68C78.1062 27.9069 78.3152 27.5153 78.5753 27.3131L77.7772 26.2869C77.0773 26.8313 76.8063 27.6931 76.8063 28.68H78.1062ZM78.5753 27.3131C78.9255 27.0407 79.3662 26.89 79.9362 26.89V25.59C79.1196 25.59 78.387 25.8126 77.7772 26.2869L78.5753 27.3131ZM104.086 35.92L103.626 36.3796L103.631 36.3844L104.086 35.92ZM106.006 56V56.65H106.656V56H106.006ZM101.686 56H101.036V56.65H101.686V56ZM100.686 38.8L100.166 39.19L100.173 39.1991L100.18 39.208L100.686 38.8ZM92.4459 56V56.65H93.0959V56H92.4459ZM88.1259 56H87.4759V56.65H88.1259V56ZM88.1259 34.44V33.79H87.4759V34.44H88.1259ZM91.5259 34.44L92.1623 34.3074L92.0545 33.79H91.5259V34.44ZM92.1259 37.32L91.4896 37.4526L91.5974 37.97H92.1259V37.32ZM92.3659 37.32V37.97H92.7317L92.9215 37.6573L92.3659 37.32ZM94.0059 35.48L94.3959 36L94.3959 36L94.0059 35.48ZM98.6859 34.69C100.918 34.69 102.53 35.2838 103.626 36.3796L104.546 35.4604C103.135 34.0496 101.147 33.39 98.6859 33.39V34.69ZM103.631 36.3844C104.732 37.4626 105.356 39.2677 105.356 41.96H106.656C106.656 39.1057 106 36.884 104.541 35.4556L103.631 36.3844ZM105.356 41.96V56H106.656V41.96H105.356ZM106.006 55.35H101.686V56.65H106.006V55.35ZM102.336 56V42.56H101.036V56H102.336ZM102.336 42.56C102.336 40.8126 101.992 39.3846 101.192 38.392L100.18 39.208C100.713 39.8688 101.036 40.9474 101.036 42.56H102.336ZM101.206 38.41C100.41 37.3491 99.1885 36.87 97.6859 36.87V38.17C98.9033 38.17 99.6816 38.5443 100.166 39.19L101.206 38.41ZM97.6859 36.87C95.5403 36.87 93.9017 37.5823 93.0016 39.1575L94.1303 39.8025C94.7235 38.7644 95.8316 38.17 97.6859 38.17V36.87ZM93.0016 39.1575C92.1739 40.6059 91.7959 42.6173 91.7959 45.12H93.0959C93.0959 42.716 93.4646 40.9674 94.1303 39.8025L93.0016 39.1575ZM91.7959 45.12V56H93.0959V45.12H91.7959ZM92.4459 55.35H88.1259V56.65H92.4459V55.35ZM88.7759 56V34.44H87.4759V56H88.7759ZM88.1259 35.09H91.5259V33.79H88.1259V35.09ZM90.8896 34.5726L91.4896 37.4526L92.7623 37.1874L92.1623 34.3074L90.8896 34.5726ZM92.1259 37.97H92.3659V36.67H92.1259V37.97ZM92.9215 37.6573C93.3358 36.975 93.8282 36.4258 94.3959 36L93.6159 34.96C92.9037 35.4942 92.3027 36.1716 91.8103 36.9827L92.9215 37.6573ZM94.3959 36C94.9721 35.5679 95.6227 35.2416 96.3527 35.0226L95.9792 33.7774C95.1092 34.0384 94.3198 34.4321 93.6159 34.96L94.3959 36ZM96.3527 35.0226C97.0889 34.8017 97.8658 34.69 98.6859 34.69V33.39C97.7461 33.39 96.8429 33.5183 95.9792 33.7774L96.3527 35.0226ZM116.314 34.44H116.964V33.79H116.314V34.44ZM116.314 56V56.65H116.964V56H116.314ZM111.954 56H111.304V56.65H111.954V56ZM111.954 34.44V33.79H111.304V34.44H111.954ZM115.874 26.8L116.273 26.2869L116.273 26.2869L115.874 26.8ZM115.874 30.56L116.273 31.0731L116.282 31.0664L116.29 31.0593L115.874 30.56ZM112.434 30.56L112.018 31.0593L112.026 31.0664L112.035 31.0731L112.434 30.56ZM112.434 26.8L112.833 27.3131L112.833 27.3131L112.434 26.8ZM115.664 34.44V56H116.964V34.44H115.664ZM116.314 55.35H111.954V56.65H116.314V55.35ZM112.604 56V34.44H111.304V56H112.604ZM111.954 35.09H116.314V33.79H111.954V35.09ZM114.194 26.89C114.698 26.89 115.115 27.0334 115.475 27.3131L116.273 26.2869C115.673 25.82 114.97 25.59 114.194 25.59V26.89ZM115.475 27.3131C115.735 27.5153 115.944 27.9069 115.944 28.68H117.244C117.244 27.6931 116.973 26.8313 116.273 26.2869L115.475 27.3131ZM115.944 28.68C115.944 29.4149 115.741 29.825 115.458 30.0607L116.29 31.0593C116.967 30.495 117.244 29.6518 117.244 28.68H115.944ZM115.475 30.0469C115.115 30.3266 114.698 30.47 114.194 30.47V31.77C114.97 31.77 115.673 31.54 116.273 31.0731L115.475 30.0469ZM114.194 30.47C113.624 30.47 113.183 30.3193 112.833 30.0469L112.035 31.0731C112.645 31.5474 113.377 31.77 114.194 31.77V30.47ZM112.85 30.0607C112.567 29.825 112.364 29.4149 112.364 28.68H111.064C111.064 29.6518 111.341 30.495 112.018 31.0593L112.85 30.0607ZM112.364 28.68C112.364 27.9069 112.573 27.5153 112.833 27.3131L112.035 26.2869C111.335 26.8313 111.064 27.6931 111.064 28.68H112.364ZM112.833 27.3131C113.183 27.0407 113.624 26.89 114.194 26.89V25.59C113.377 25.59 112.645 25.8126 112.035 26.2869L112.833 27.3131ZM138.344 35.92L137.884 36.3796L137.889 36.3844L138.344 35.92ZM140.264 56V56.65H140.914V56H140.264ZM135.944 56H135.294V56.65H135.944V56ZM134.944 38.8L134.424 39.19L134.431 39.1991L134.438 39.208L134.944 38.8ZM126.704 56V56.65H127.354V56H126.704ZM122.384 56H121.734V56.65H122.384V56ZM122.384 34.44V33.79H121.734V34.44H122.384ZM125.784 34.44L126.42 34.3074L126.312 33.79H125.784V34.44ZM126.384 37.32L125.747 37.4526L125.855 37.97H126.384V37.32ZM126.624 37.32V37.97H126.99L127.179 37.6573L126.624 37.32ZM128.264 35.48L128.654 36L128.654 36L128.264 35.48ZM132.944 34.69C135.176 34.69 136.788 35.2838 137.884 36.3796L138.803 35.4604C137.393 34.0496 135.405 33.39 132.944 33.39V34.69ZM137.889 36.3844C138.99 37.4626 139.614 39.2677 139.614 41.96H140.914C140.914 39.1057 140.257 36.884 138.799 35.4556L137.889 36.3844ZM139.614 41.96V56H140.914V41.96H139.614ZM140.264 55.35H135.944V56.65H140.264V55.35ZM136.594 56V42.56H135.294V56H136.594ZM136.594 42.56C136.594 40.8126 136.25 39.3846 135.45 38.392L134.438 39.208C134.971 39.8688 135.294 40.9474 135.294 42.56H136.594ZM135.464 38.41C134.668 37.3491 133.446 36.87 131.944 36.87V38.17C133.161 38.17 133.939 38.5443 134.424 39.19L135.464 38.41ZM131.944 36.87C129.798 36.87 128.16 37.5823 127.259 39.1575L128.388 39.8025C128.981 38.7644 130.089 38.17 131.944 38.17V36.87ZM127.259 39.1575C126.432 40.6059 126.054 42.6173 126.054 45.12H127.354C127.354 42.716 127.722 40.9674 128.388 39.8025L127.259 39.1575ZM126.054 45.12V56H127.354V45.12H126.054ZM126.704 55.35H122.384V56.65H126.704V55.35ZM123.034 56V34.44H121.734V56H123.034ZM122.384 35.09H125.784V33.79H122.384V35.09ZM125.147 34.5726L125.747 37.4526L127.02 37.1874L126.42 34.3074L125.147 34.5726ZM126.384 37.97H126.624V36.67H126.384V37.97ZM127.179 37.6573C127.594 36.975 128.086 36.4258 128.654 36L127.874 34.96C127.162 35.4942 126.561 36.1716 126.068 36.9827L127.179 37.6573ZM128.654 36C129.23 35.5679 129.881 35.2416 130.611 35.0226L130.237 33.7774C129.367 34.0384 128.578 34.4321 127.874 34.96L128.654 36ZM130.611 35.0226C131.347 34.8017 132.124 34.69 132.944 34.69V33.39C132.004 33.39 131.101 33.5183 130.237 33.7774L130.611 35.0226ZM156.692 34.84L156.389 35.4152L156.395 35.4184L156.692 34.84ZM159.332 37.28L158.789 37.6375L158.982 37.93H159.332V37.28ZM159.492 37.28V37.93H160.041L160.133 37.3883L159.492 37.28ZM159.972 34.44V33.79H159.423L159.331 34.3317L159.972 34.44ZM163.532 34.44H164.182V33.79H163.532V34.44ZM159.332 64.52L159.046 63.9364L159.037 63.9408L159.332 64.52ZM149.892 65.28L149.778 65.92L149.781 65.9204L149.892 65.28ZM146.532 64.28H145.882V64.7057L146.272 64.8759L146.532 64.28ZM146.532 60.56L146.84 59.9877L145.882 59.4718V60.56H146.532ZM148.772 61.48L148.977 60.8634L148.968 60.8602L148.959 60.8574L148.772 61.48ZM151.292 62.04L151.386 61.3969L151.378 61.3957L151.37 61.3947L151.292 62.04ZM157.892 60.72L157.413 60.2802L157.407 60.2869L157.401 60.2938L157.892 60.72ZM159.292 54.44L159.941 54.4709L159.941 54.4695L159.292 54.44ZM159.372 53.16L160.019 53.2247L160.09 52.51H159.372V53.16ZM159.212 53.16V52.51H158.842L158.653 52.8275L159.212 53.16ZM156.692 55.64L156.989 56.2182L156.995 56.2152L156.692 55.64ZM147.252 53.48L146.727 53.8632L146.729 53.8666L147.252 53.48ZM146.052 39.28L145.448 39.0402L145.446 39.0454L146.052 39.28ZM148.852 35.4L148.465 34.8773L148.46 34.8814L148.852 35.4ZM151.692 38.48L152.112 38.9762L152.117 38.9716L152.123 38.9668L151.692 38.48ZM150.092 41.08L149.474 40.8787L149.47 40.8919L150.092 41.08ZM156.612 52.6L156.862 53.2L156.862 53.2L156.612 52.6ZM158.172 51.36L157.655 50.9661L157.649 50.974L157.643 50.9822L158.172 51.36ZM159.092 49.24L158.46 49.0869L158.458 49.094L158.457 49.1011L159.092 49.24ZM158.852 40.84L158.23 41.0281L158.232 41.0369L158.235 41.0455L158.852 40.84ZM157.172 38.36L156.794 38.8889L156.805 38.8965L156.816 38.9037L157.172 38.36ZM153.212 34.69C154.428 34.69 155.482 34.9375 156.389 35.4152L156.995 34.2648C155.875 33.6758 154.609 33.39 153.212 33.39V34.69ZM156.395 35.4184C157.324 35.8946 158.123 36.6263 158.789 37.6375L159.875 36.9225C159.101 35.747 158.14 34.852 156.988 34.2616L156.395 35.4184ZM159.332 37.93H159.492V36.63H159.332V37.93ZM160.133 37.3883L160.613 34.5483L159.331 34.3317L158.851 37.1717L160.133 37.3883ZM159.972 35.09H163.532V33.79H159.972V35.09ZM162.882 34.44V56.28H164.182V34.44H162.882ZM162.882 56.28C162.882 58.2356 162.547 59.8363 161.91 61.1093L163.073 61.6907C163.823 60.1904 164.182 58.3777 164.182 56.28H162.882ZM161.91 61.1093C161.282 62.3666 160.333 63.3047 159.046 63.9364L159.618 65.1036C161.157 64.3486 162.315 63.2068 163.073 61.6907L161.91 61.1093ZM159.037 63.9408C157.742 64.6005 156.065 64.95 153.972 64.95V66.25C156.199 66.25 158.095 65.8795 159.627 65.0992L159.037 63.9408ZM153.972 64.95C152.509 64.95 151.187 64.8454 150.003 64.6396L149.781 65.9204C151.05 66.1412 152.448 66.25 153.972 66.25V64.95ZM150.006 64.64C148.852 64.435 147.782 64.1157 146.792 63.6841L146.272 64.8759C147.362 65.351 148.532 65.6984 149.778 65.92L150.006 64.64ZM147.182 64.28V60.56H145.882V64.28H147.182ZM146.224 61.1323C146.958 61.5277 147.746 61.8507 148.585 62.1026L148.959 60.8574C148.198 60.6293 147.492 60.339 146.84 59.9877L146.224 61.1323ZM148.566 62.0966C149.41 62.3778 150.293 62.5736 151.214 62.6853L151.37 61.3947C150.531 61.293 149.734 61.1155 148.977 60.8634L148.566 62.0966ZM151.197 62.6831C152.137 62.8212 153.102 62.89 154.092 62.89V61.59C153.162 61.59 152.26 61.5254 151.386 61.3969L151.197 62.6831ZM154.092 62.89C155.886 62.89 157.351 62.334 158.383 61.1462L157.401 60.2938C156.673 61.1327 155.604 61.59 154.092 61.59V62.89ZM158.37 61.1598C159.421 60.0162 159.902 58.4378 159.902 56.52H158.602C158.602 58.2288 158.176 59.4505 157.413 60.2802L158.37 61.1598ZM159.902 56.52V55.8H158.602V56.52H159.902ZM159.902 55.8C159.902 55.4679 159.915 55.0261 159.941 54.4709L158.643 54.4091C158.616 54.9739 158.602 55.4387 158.602 55.8H159.902ZM159.941 54.4695C159.968 53.8842 159.994 53.4725 160.019 53.2247L158.725 53.0953C158.697 53.3808 158.669 53.8225 158.643 54.4105L159.941 54.4695ZM159.372 52.51H159.212V53.81H159.372V52.51ZM158.653 52.8275C158.039 53.8591 157.282 54.5947 156.389 55.0648L156.995 56.2152C158.128 55.6187 159.051 54.7009 159.77 53.4925L158.653 52.8275ZM156.395 55.0618C155.519 55.5118 154.452 55.75 153.172 55.75V57.05C154.612 57.05 155.892 56.7816 156.989 56.2182L156.395 55.0618ZM153.172 55.75C150.863 55.75 149.087 54.8677 147.774 53.0934L146.729 53.8666C148.297 55.9857 150.468 57.05 153.172 57.05V55.75ZM147.777 53.0968C146.446 51.2734 145.742 48.6928 145.742 45.28H144.442C144.442 48.8539 145.177 51.7399 146.727 53.8632L147.777 53.0968ZM145.742 45.28C145.742 42.9891 146.055 41.0732 146.658 39.5146L145.446 39.0454C144.769 40.7934 144.442 42.8776 144.442 45.28H145.742ZM146.656 39.5197C147.288 37.928 148.156 36.7402 149.244 35.9186L148.46 34.8814C147.147 35.8731 146.149 37.272 145.448 39.0403L146.656 39.5197ZM149.238 35.9227C150.342 35.1071 151.656 34.69 153.212 34.69V33.39C151.408 33.39 149.815 33.8795 148.466 34.8773L149.238 35.9227ZM154.252 36.91C153.096 36.91 152.085 37.2644 151.261 37.9932L152.123 38.9668C152.685 38.4689 153.381 38.21 154.252 38.21V36.91ZM151.272 37.9838C150.461 38.6701 149.873 39.6539 149.474 40.8788L150.71 41.2812C151.058 40.2127 151.536 39.4632 152.112 38.9762L151.272 37.9838ZM149.47 40.8919C149.099 42.1186 148.922 43.5998 148.922 45.32H150.222C150.222 43.6802 150.392 42.3347 150.714 41.2681L149.47 40.8919ZM148.922 45.32C148.922 47.878 149.327 49.9248 150.218 51.3794L151.326 50.7006C150.617 49.5419 150.222 47.7753 150.222 45.32H148.922ZM150.218 51.3794C151.137 52.8813 152.522 53.65 154.292 53.65V52.35C152.969 52.35 152.007 51.8121 151.326 50.7006L150.218 51.3794ZM154.292 53.65C155.259 53.65 156.122 53.5081 156.862 53.2L156.362 52C155.821 52.2252 155.138 52.35 154.292 52.35V53.65ZM156.862 53.2C157.613 52.8871 158.23 52.3972 158.701 51.7378L157.643 50.9822C157.314 51.4428 156.891 51.7796 156.362 52L156.862 53.2ZM158.689 51.7539C159.185 51.1026 159.525 50.3031 159.727 49.3789L158.457 49.1011C158.286 49.8836 158.012 50.4974 157.655 50.9661L158.689 51.7539ZM159.724 49.3931C159.952 48.4489 160.062 47.3414 160.062 46.08H158.762C158.762 47.272 158.658 48.2711 158.46 49.0869L159.724 49.3931ZM160.062 46.08V45.28H158.762V46.08H160.062ZM160.062 45.28C160.062 43.4046 159.873 41.847 159.469 40.6345L158.235 41.0455C158.578 42.073 158.762 43.4754 158.762 45.28H160.062ZM159.474 40.6519C159.097 39.4031 158.463 38.4287 157.528 37.8163L156.816 38.9037C157.428 39.3046 157.914 39.9836 158.23 41.0281L159.474 40.6519ZM157.55 37.8311C156.663 37.1979 155.546 36.91 154.252 36.91V38.21C155.358 38.21 156.187 38.4554 156.794 38.8889L157.55 37.8311ZM174.45 56V56.65H175.1V56H174.45ZM170.05 56H169.4V56.65H170.05V56ZM170.05 27.44V26.79H169.4V27.44H170.05ZM185.29 27.44H185.94V26.79H185.29V27.44ZM185.29 31.12V31.77H185.94V31.12H185.29ZM174.45 31.12V30.47H173.8V31.12H174.45ZM174.45 40.44H173.8V41.09H174.45V40.44ZM184.61 40.44H185.26V39.79H184.61V40.44ZM184.61 44.12V44.77H185.26V44.12H184.61ZM174.45 44.12V43.47H173.8V44.12H174.45ZM174.45 55.35H170.05V56.65H174.45V55.35ZM170.7 56V27.44H169.4V56H170.7ZM170.05 28.09H185.29V26.79H170.05V28.09ZM184.64 27.44V31.12H185.94V27.44H184.64ZM185.29 30.47H174.45V31.77H185.29V30.47ZM173.8 31.12V40.44H175.1V31.12H173.8ZM174.45 41.09H184.61V39.79H174.45V41.09ZM183.96 40.44V44.12H185.26V40.44H183.96ZM184.61 43.47H174.45V44.77H184.61V43.47ZM173.8 44.12V56H175.1V44.12H173.8ZM203.373 35.84L202.928 36.3143L202.939 36.3236L203.373 35.84ZM205.333 56V56.65H205.983V56H205.333ZM202.253 56L201.627 56.1753L201.76 56.65H202.253V56ZM201.413 53L202.039 52.8247L201.906 52.35H201.413V53ZM201.253 53V52.35H200.939L200.744 52.5961L201.253 53ZM199.413 54.92L198.999 54.4189L198.994 54.4234L198.988 54.4281L199.413 54.92ZM197.333 56.04L197.146 55.4174L197.14 55.4192L197.333 56.04ZM191.213 55.72L190.922 56.3014L190.929 56.3046L190.936 56.3078L191.213 55.72ZM188.933 53.56L188.368 53.8809L188.372 53.8875L188.933 53.56ZM190.413 44.88L190.03 44.3547L190.026 44.3578L190.413 44.88ZM197.573 43L197.595 43.6496L197.596 43.6496L197.573 43ZM201.013 42.88L201.036 43.5296L201.663 43.5077V42.88H201.013ZM200.013 38.32L199.553 38.7797L199.563 38.7889L200.013 38.32ZM194.373 37.84L194.579 38.4566L194.579 38.4566L194.373 37.84ZM191.573 39L190.976 39.256L191.247 39.8897L191.864 39.5814L191.573 39ZM190.253 35.92L189.944 35.3482L189.422 35.6305L189.656 36.176L190.253 35.92ZM193.613 34.6L193.786 35.2265L193.795 35.224L193.613 34.6ZM198.413 45.72L198.393 45.0702L198.381 45.0708L198.413 45.72ZM193.853 46.96L194.263 47.4646L194.272 47.4568L193.853 46.96ZM193.453 52.36L193.028 52.8519L193.034 52.8566L193.039 52.8611L193.453 52.36ZM199.493 51.72L199.053 51.2419L199.046 51.2478L199.493 51.72ZM201.013 45.64H201.663V44.9697L200.993 44.9903L201.013 45.64ZM197.653 34.69C200.094 34.69 201.813 35.2687 202.929 36.3142L203.818 35.3658C202.373 34.0113 200.279 33.39 197.653 33.39V34.69ZM202.939 36.3236C204.056 37.3272 204.683 38.9678 204.683 41.4H205.983C205.983 38.7655 205.303 36.6994 203.807 35.3564L202.939 36.3236ZM204.683 41.4V56H205.983V41.4H204.683ZM205.333 55.35H202.253V56.65H205.333V55.35ZM202.879 55.8247L202.039 52.8247L200.787 53.1753L201.627 56.1753L202.879 55.8247ZM201.413 52.35H201.253V53.65H201.413V52.35ZM200.744 52.5961C200.152 53.3419 199.57 53.9471 198.999 54.4189L199.827 55.4211C200.483 54.8795 201.127 54.2048 201.762 53.4039L200.744 52.5961ZM198.988 54.4281C198.476 54.8704 197.866 55.2016 197.146 55.4174L197.52 56.6626C198.401 56.3984 199.177 55.983 199.838 55.4119L198.988 54.4281ZM197.14 55.4192C196.449 55.6336 195.559 55.75 194.453 55.75V57.05C195.64 57.05 196.67 56.9264 197.526 56.6608L197.14 55.4192ZM194.453 55.75C193.337 55.75 192.353 55.5395 191.491 55.1322L190.936 56.3078C191.993 56.8071 193.17 57.05 194.453 57.05V55.75ZM191.504 55.1386C190.661 54.7172 189.993 54.0874 189.495 53.2325L188.372 53.8875C188.993 54.9526 189.845 55.7628 190.922 56.3014L191.504 55.1386ZM189.498 53.2392C189.008 52.3749 188.743 51.2663 188.743 49.88H187.443C187.443 51.427 187.738 52.7718 188.368 53.8808L189.498 53.2392ZM188.743 49.88C188.743 47.8672 189.443 46.4083 190.8 45.4022L190.026 44.3578C188.29 45.645 187.443 47.5195 187.443 49.88H188.743ZM190.796 45.4053C192.216 44.3704 194.449 43.7545 197.595 43.6496L197.551 42.3504C194.297 42.4588 191.757 43.0963 190.03 44.3547L190.796 45.4053ZM197.596 43.6496L201.036 43.5296L200.99 42.2304L197.55 42.3504L197.596 43.6496ZM201.663 42.88V41.68H200.363V42.88H201.663ZM201.663 41.68C201.663 40.0241 201.324 38.6778 200.463 37.8511L199.563 38.7889C200.035 39.2422 200.363 40.1359 200.363 41.68H201.663ZM200.473 37.8604C199.678 37.0654 198.586 36.71 197.293 36.71V38.01C198.347 38.01 199.069 38.2946 199.554 38.7796L200.473 37.8604ZM197.293 36.71C196.235 36.71 195.192 36.8818 194.168 37.2234L194.579 38.4566C195.474 38.1582 196.378 38.01 197.293 38.01V36.71ZM194.168 37.2234C193.178 37.5531 192.217 37.9516 191.282 38.4186L191.864 39.5814C192.743 39.1418 193.648 38.7669 194.579 38.4566L194.168 37.2234ZM192.171 38.744L190.851 35.664L189.656 36.176L190.976 39.256L192.171 38.744ZM190.562 36.4918C191.5 35.9851 192.573 35.5621 193.786 35.2265L193.44 33.9735C192.147 34.3312 190.98 34.7882 189.944 35.3482L190.562 36.4918ZM193.795 35.224C195.013 34.8689 196.298 34.69 197.653 34.69V33.39C196.182 33.39 194.774 33.5844 193.431 33.976L193.795 35.224ZM198.381 45.0708C196.168 45.1787 194.46 45.5973 193.434 46.4632L194.272 47.4568C194.953 46.8827 196.285 46.4746 198.445 46.3692L198.381 45.0708ZM193.443 46.4555C192.412 47.2933 191.923 48.4802 191.923 49.92H193.223C193.223 48.7998 193.587 48.0134 194.263 47.4645L193.443 46.4555ZM191.923 49.92C191.923 51.1426 192.244 52.1748 193.028 52.8519L193.878 51.8681C193.489 51.5319 193.223 50.9374 193.223 49.92H191.923ZM193.039 52.8611C193.792 53.4828 194.734 53.77 195.813 53.77V52.47C194.972 52.47 194.341 52.2505 193.867 51.8589L193.039 52.8611ZM195.813 53.77C197.431 53.77 198.822 53.2493 199.94 52.1922L199.046 51.2478C198.191 52.0573 197.128 52.47 195.813 52.47V53.77ZM199.933 52.1981C201.123 51.1026 201.663 49.5012 201.663 47.52H200.363C200.363 49.2721 199.89 50.4707 199.053 51.2419L199.933 52.1981ZM201.663 47.52V45.64H200.363V47.52H201.663ZM200.993 44.9903L198.393 45.0703L198.433 46.3697L201.033 46.2897L200.993 44.9903ZM214.65 55.24L214.338 55.8102L214.342 55.8126L214.65 55.24ZM211.33 51.64L210.741 51.9154L210.747 51.9269L211.33 51.64ZM211.45 38.88L210.872 38.5819L210.872 38.5819L211.45 38.88ZM214.93 35.24L215.233 35.815L215.241 35.8106L214.93 35.24ZM223.17 34.44L223.005 35.0686L223.014 35.0711L223.024 35.0734L223.17 34.44ZM225.73 35.28L226.336 35.5152L226.554 34.9544L226.011 34.694L225.73 35.28ZM224.41 38.68L224.169 39.2835L224.778 39.5274L225.016 38.9152L224.41 38.68ZM222.25 37.96L222.423 37.3334L222.423 37.3334L222.25 37.96ZM217.01 38.52L217.391 39.0465L217.394 39.0442L217.01 38.52ZM215.25 41.08L215.862 41.2986L215.864 41.2941L215.25 41.08ZM215.25 49.44L214.638 49.6586L214.638 49.6586L215.25 49.44ZM217.01 52L216.617 52.5178L216.627 52.5254L216.637 52.5325L217.01 52ZM222.81 52.44L222.621 51.8179L222.616 51.8196L222.81 52.44ZM225.25 51.4H225.9V50.2799L224.928 50.8356L225.25 51.4ZM225.25 55.08L225.587 55.6356L225.9 55.4458V55.08H225.25ZM222.81 56.08L222.657 55.4483L222.81 56.08ZM219.65 55.75C217.847 55.75 216.289 55.3824 214.958 54.6674L214.342 55.8126C215.891 56.6443 217.666 57.05 219.65 57.05V55.75ZM214.962 54.6698C213.681 53.9686 212.662 52.8753 211.913 51.3531L210.747 51.9269C211.598 53.658 212.793 54.9647 214.338 55.8102L214.962 54.6698ZM211.919 51.3646C211.198 49.8241 210.82 47.8328 210.82 45.36H209.52C209.52 47.9539 209.915 50.1492 210.741 51.9154L211.919 51.3646ZM210.82 45.36C210.82 42.7551 211.238 40.7081 212.028 39.1781L210.872 38.5819C209.955 40.3586 209.52 42.6316 209.52 45.36H210.82ZM212.028 39.1781C212.828 37.628 213.898 36.5188 215.233 35.815L214.627 34.665C213.028 35.5078 211.779 36.8254 210.872 38.5819L212.028 39.1781ZM215.241 35.8106C216.6 35.0693 218.171 34.69 219.97 34.69V33.39C217.983 33.39 216.193 33.8107 214.619 34.6694L215.241 35.8106ZM219.97 34.69C221.038 34.69 222.049 34.8171 223.005 35.0686L223.335 33.8114C222.265 33.5296 221.142 33.39 219.97 33.39V34.69ZM223.024 35.0734C224.036 35.3069 224.84 35.5736 225.449 35.866L226.011 34.694C225.287 34.3464 224.384 34.0531 223.316 33.8066L223.024 35.0734ZM225.124 35.0448L223.804 38.4448L225.016 38.9152L226.336 35.5152L225.124 35.0448ZM224.651 38.0765C223.96 37.7999 223.217 37.5524 222.423 37.3334L222.077 38.5866C222.83 38.7942 223.527 39.0268 224.169 39.2835L224.651 38.0765ZM222.423 37.3334C221.602 37.1069 220.81 36.99 220.05 36.99V38.29C220.677 38.29 221.352 38.3864 222.077 38.5866L222.423 37.3334ZM220.05 36.99C218.718 36.99 217.561 37.3097 216.626 37.9958L217.394 39.0442C218.059 38.5569 218.928 38.29 220.05 38.29V36.99ZM216.629 37.9935C215.722 38.6503 215.068 39.6279 214.636 40.8659L215.864 41.2941C216.232 40.2387 216.751 39.5097 217.391 39.0465L216.629 37.9935ZM214.638 40.8614C214.204 42.0749 214 43.5685 214 45.32H215.3C215.3 43.6582 215.496 42.3251 215.862 41.2986L214.638 40.8614ZM214 45.32C214 46.9957 214.205 48.4479 214.638 49.6586L215.862 49.2214C215.495 48.1921 215.3 46.8977 215.3 45.32H214ZM214.638 49.6586C215.071 50.8706 215.723 51.8392 216.617 52.5178L217.403 51.4822C216.751 50.9874 216.229 50.2494 215.862 49.2214L214.638 49.6586ZM216.637 52.5325C217.562 53.1798 218.657 53.49 219.89 53.49V52.19C218.883 52.19 218.058 51.9402 217.383 51.4675L216.637 52.5325ZM219.89 53.49C221.035 53.49 222.076 53.3505 223.004 53.0604L222.616 51.8196C221.838 52.0628 220.932 52.19 219.89 52.19V53.49ZM222.999 53.0621C223.922 52.7822 224.781 52.4168 225.572 51.9644L224.928 50.8356C224.226 51.2365 223.458 51.5644 222.621 51.8179L222.999 53.0621ZM224.6 51.4V55.08H225.9V51.4H224.6ZM224.913 54.5244C224.225 54.9418 223.474 55.2501 222.657 55.4483L222.963 56.7117C223.906 56.4832 224.781 56.1249 225.587 55.6356L224.913 54.5244ZM222.657 55.4483C221.841 55.6461 220.842 55.75 219.65 55.75V57.05C220.911 57.05 222.019 56.9406 222.963 56.7117L222.657 55.4483ZM239.203 52.8L239.33 53.4374L239.33 53.4374L239.203 52.8ZM240.603 52.44H241.253V51.5382L240.397 51.8234L240.603 52.44ZM240.603 55.64L240.88 56.2281L241.253 56.0525V55.64H240.603ZM238.803 56.16L238.689 55.5201L238.675 55.5225L238.662 55.5255L238.803 56.16ZM233.443 55.8L233.187 56.3974L233.187 56.3974L233.443 55.8ZM231.203 53.72L230.638 54.0408L230.638 54.0408L231.203 53.72ZM230.363 37.68H231.013V37.03H230.363V37.68ZM227.603 37.68H226.953V38.33H227.603V37.68ZM227.603 35.76L227.294 35.1882L226.953 35.3725V35.76H227.603ZM230.563 34.16L230.872 34.7318L231.101 34.6081L231.181 34.3607L230.563 34.16ZM232.043 29.6V28.95H231.57L231.425 29.3993L232.043 29.6ZM234.723 29.6H235.373V28.95H234.723V29.6ZM234.723 34.44H234.073V35.09H234.723V34.44ZM240.443 34.44H241.093V33.79H240.443V34.44ZM240.443 37.68V38.33H241.093V37.68H240.443ZM234.723 37.68V37.03H234.073V37.68H234.723ZM235.523 52.12L235.052 52.5683L235.052 52.5683L235.523 52.12ZM237.563 53.61C238.164 53.61 238.754 53.5527 239.33 53.4374L239.075 52.1626C238.585 52.2606 238.081 52.31 237.563 52.31V53.61ZM239.33 53.4374C239.883 53.3269 240.377 53.2005 240.808 53.0566L240.397 51.8234C240.029 51.9461 239.589 52.0598 239.075 52.1626L239.33 53.4374ZM239.953 52.44V55.64H241.253V52.44H239.953ZM240.326 55.0519C239.944 55.2319 239.405 55.3922 238.689 55.5201L238.917 56.7999C239.694 56.6611 240.355 56.4748 240.88 56.2281L240.326 55.0519ZM238.662 55.5255C237.992 55.6744 237.279 55.75 236.523 55.75V57.05C237.366 57.05 238.174 56.9656 238.944 56.7945L238.662 55.5255ZM236.523 55.75C235.482 55.75 234.543 55.5645 233.699 55.2026L233.187 56.3974C234.209 56.8355 235.324 57.05 236.523 57.05V55.75ZM233.699 55.2026C232.911 54.865 232.267 54.2776 231.768 53.3992L230.638 54.0408C231.259 55.1358 232.108 55.935 233.187 56.3974L233.699 55.2026ZM231.768 53.3992C231.286 52.5499 231.013 51.3041 231.013 49.6H229.713C229.713 51.4159 230 52.9168 230.638 54.0408L231.768 53.3992ZM231.013 49.6V37.68H229.713V49.6H231.013ZM230.363 37.03H227.603V38.33H230.363V37.03ZM228.253 37.68V35.76H226.953V37.68H228.253ZM227.912 36.3318L230.872 34.7318L230.254 33.5882L227.294 35.1882L227.912 36.3318ZM231.181 34.3607L232.661 29.8007L231.425 29.3993L229.945 33.9593L231.181 34.3607ZM232.043 30.25H234.723V28.95H232.043V30.25ZM234.073 29.6V34.44H235.373V29.6H234.073ZM234.723 35.09H240.443V33.79H234.723V35.09ZM239.793 34.44V37.68H241.093V34.44H239.793ZM240.443 37.03H234.723V38.33H240.443V37.03ZM234.073 37.68V49.52H235.373V37.68H234.073ZM234.073 49.52C234.073 50.7759 234.356 51.8377 235.052 52.5683L235.994 51.6717C235.623 51.2823 235.373 50.6107 235.373 49.52H234.073ZM235.052 52.5683C235.717 53.2667 236.572 53.61 237.563 53.61V52.31C236.9 52.31 236.395 52.0933 235.994 51.6717L235.052 52.5683ZM262.05 49.96L261.432 49.758L261.432 49.758L262.05 49.96ZM260.09 53.48L259.604 53.0481L259.598 53.0559L260.09 53.48ZM257.05 55.68L257.292 56.2836L257.303 56.2788L257.05 55.68ZM249.21 55.68L248.953 56.2769L248.964 56.2816L249.21 55.68ZM246.17 53.48L245.684 53.9118L245.684 53.9118L246.17 53.48ZM244.17 49.96L243.552 50.162L243.556 50.1726L244.17 49.96ZM244.65 39.12L245.239 39.3954L245.239 39.3954L244.65 39.12ZM247.97 35.36L248.302 35.9192L248.305 35.9174L247.97 35.36ZM258.13 35.36L257.791 35.9147L257.799 35.9192L258.13 35.36ZM261.49 39.12L260.905 39.4031L260.909 39.4107L261.49 39.12ZM248.49 49.36L247.867 49.5442L247.869 49.5527L247.872 49.5612L248.49 49.36ZM250.17 52L249.758 52.5023L249.766 52.5093L250.17 52ZM256.01 52L255.606 51.4907L255.598 51.4977L256.01 52ZM257.69 49.36L257.071 49.1629L257.068 49.1719L257.69 49.36ZM256.01 38.48L255.598 38.9824L255.609 38.9911L256.01 38.48ZM249.17 39.56L249.728 39.8944L249.728 39.8944L249.17 39.56ZM262.08 45.2C262.08 46.9329 261.86 48.4493 261.432 49.758L262.668 50.162C263.147 48.6974 263.38 47.0404 263.38 45.2H262.08ZM261.432 49.758C261.003 51.0713 260.391 52.1634 259.604 53.0482L260.576 53.9118C261.496 52.8766 262.191 51.622 262.668 50.162L261.432 49.758ZM259.598 53.0559C258.838 53.9378 257.908 54.6124 256.797 55.0812L257.303 56.2788C258.593 55.7343 259.689 54.9422 260.583 53.9041L259.598 53.0559ZM256.809 55.0765C255.697 55.5214 254.434 55.75 253.01 55.75V57.05C254.574 57.05 256.004 56.7986 257.292 56.2835L256.809 55.0765ZM253.01 55.75C251.729 55.75 250.546 55.5242 249.456 55.0784L248.964 56.2816C250.221 56.7958 251.572 57.05 253.01 57.05V55.75ZM249.468 55.0833C248.382 54.6144 247.447 53.9376 246.656 53.0482L245.684 53.9118C246.601 54.9424 247.692 55.7322 248.953 56.2767L249.468 55.0833ZM246.656 53.0482C245.867 52.1605 245.241 51.0647 244.785 49.7474L243.556 50.1726C244.06 51.6287 244.767 52.8795 245.684 53.9118L246.656 53.0482ZM244.788 49.758C244.361 48.4502 244.14 46.9207 244.14 45.16H242.84C242.84 47.026 243.073 48.6965 243.552 50.162L244.788 49.758ZM244.14 45.16C244.14 42.8544 244.516 40.9407 245.239 39.3954L244.062 38.8446C243.238 40.606 242.84 42.7189 242.84 45.16H244.14ZM245.239 39.3954C245.962 37.8492 246.984 36.6999 248.302 35.9192L247.639 34.8008C246.076 35.7268 244.885 37.0842 244.062 38.8446L245.239 39.3954ZM248.305 35.9174C249.654 35.1076 251.268 34.69 253.17 34.69V33.39C251.073 33.39 249.22 33.8524 247.636 34.8026L248.305 35.9174ZM253.17 34.69C254.93 34.69 256.464 35.1035 257.791 35.9146L258.469 34.8054C256.917 33.8565 255.144 33.39 253.17 33.39V34.69ZM257.799 35.9192C259.118 36.7011 260.155 37.8531 260.905 39.4031L262.075 38.8369C261.225 37.0802 260.022 35.7255 258.462 34.8008L257.799 35.9192ZM260.909 39.4107C261.679 40.951 262.08 42.8719 262.08 45.2H263.38C263.38 42.7281 262.955 40.5957 262.072 38.8293L260.909 39.4107ZM247.32 45.2C247.32 46.8443 247.498 48.2959 247.867 49.5442L249.114 49.1758C248.789 48.0774 248.62 46.7557 248.62 45.2H247.32ZM247.872 49.5612C248.274 50.7966 248.894 51.7928 249.758 52.5023L250.583 51.4977C249.953 50.9805 249.453 50.2167 249.108 49.1588L247.872 49.5612ZM249.766 52.5093C250.675 53.2301 251.799 53.57 253.09 53.57V52.27C252.035 52.27 251.212 51.9965 250.574 51.4907L249.766 52.5093ZM253.09 53.57C254.403 53.57 255.534 53.2325 256.423 52.5023L255.598 51.4977C254.993 51.9942 254.177 52.27 253.09 52.27V53.57ZM256.414 52.5093C257.312 51.7974 257.936 50.7941 258.313 49.5481L257.068 49.1719C256.751 50.2193 256.256 50.9759 255.606 51.4907L256.414 52.5093ZM258.31 49.5571C258.708 48.3042 258.9 46.848 258.9 45.2H257.6C257.6 46.752 257.419 48.0691 257.071 49.1629L258.31 49.5571ZM258.9 45.2C258.9 43.5025 258.709 42.0414 258.307 40.8345L257.074 41.2455C257.418 42.2786 257.6 43.5908 257.6 45.2H258.9ZM258.307 40.8345C257.903 39.6232 257.281 38.6514 256.412 37.9689L255.609 38.9911C256.233 39.482 256.731 40.2168 257.074 41.2455L258.307 40.8345ZM256.423 37.9777C255.532 37.2455 254.386 36.91 253.05 36.91V38.21C254.168 38.21 254.996 38.4878 255.598 38.9823L256.423 37.9777ZM253.05 36.91C251.076 36.91 249.55 37.6641 248.613 39.2256L249.728 39.8944C250.391 38.7892 251.452 38.21 253.05 38.21V36.91ZM248.613 39.2256C247.727 40.7015 247.32 42.7159 247.32 45.2H248.62C248.62 42.8307 249.013 41.0852 249.728 39.8944L248.613 39.2256ZM279.097 34.12L279.017 34.765L279.037 34.7675L279.057 34.7687L279.097 34.12ZM280.177 34.24L280.823 34.3118L280.89 33.709L280.293 33.6005L280.177 34.24ZM279.737 38.2L279.566 38.8271L280.299 39.027L280.383 38.2718L279.737 38.2ZM275.537 38.4L275.799 38.995L275.809 38.9906L275.818 38.986L275.537 38.4ZM273.737 39.72L274.208 40.1683L274.213 40.1628L274.218 40.1572L273.737 39.72ZM272.457 41.8L271.851 41.5654L271.851 41.5654L272.457 41.8ZM271.977 56V56.65H272.627V56H271.977ZM267.657 56H267.007V56.65H267.657V56ZM267.657 34.44V33.79H267.007V34.44H267.657ZM271.057 34.44L271.7 34.3462L271.619 33.79H271.057V34.44ZM271.617 38.28L270.974 38.3738L271.055 38.93H271.617V38.28ZM271.857 38.28V38.93H272.253L272.435 38.5786L271.857 38.28ZM273.337 36.16L272.868 35.7103L272.863 35.7155L272.858 35.7208L273.337 36.16ZM275.417 34.64L275.7 35.2254L275.708 35.2215L275.716 35.2173L275.417 34.64ZM277.937 34.69C278.251 34.69 278.611 34.7142 279.017 34.765L279.178 33.475C278.73 33.4191 278.316 33.39 277.937 33.39V34.69ZM279.057 34.7687C279.468 34.7944 279.801 34.8322 280.061 34.8795L280.293 33.6005C279.967 33.5411 279.58 33.4989 279.138 33.4713L279.057 34.7687ZM279.531 34.1682L279.091 38.1282L280.383 38.2718L280.823 34.3118L279.531 34.1682ZM279.908 37.5729C279.584 37.4844 279.223 37.4128 278.829 37.3565L278.645 38.6435C278.998 38.6939 279.304 38.7556 279.566 38.8271L279.908 37.5729ZM278.829 37.3565C278.426 37.2989 278.022 37.27 277.617 37.27V38.57C277.959 38.57 278.302 38.5944 278.645 38.6435L278.829 37.3565ZM277.617 37.27C276.797 37.27 276.008 37.4531 275.256 37.814L275.818 38.986C276.4 38.7069 276.997 38.57 277.617 38.57V37.27ZM275.275 37.805C274.518 38.1382 273.845 38.6348 273.256 39.2828L274.218 40.1572C274.696 39.6319 275.223 39.2485 275.799 38.995L275.275 37.805ZM273.266 39.2717C272.666 39.9017 272.197 40.6708 271.851 41.5654L273.063 42.0346C273.357 41.2759 273.741 40.6583 274.208 40.1683L273.266 39.2717ZM271.851 41.5654C271.497 42.4804 271.327 43.509 271.327 44.64H272.627C272.627 43.6377 272.778 42.773 273.063 42.0346L271.851 41.5654ZM271.327 44.64V56H272.627V44.64H271.327ZM271.977 55.35H267.657V56.65H271.977V55.35ZM268.307 56V34.44H267.007V56H268.307ZM267.657 35.09H271.057V33.79H267.657V35.09ZM270.414 34.5338L270.974 38.3738L272.26 38.1862L271.7 34.3462L270.414 34.5338ZM271.617 38.93H271.857V37.63H271.617V38.93ZM272.435 38.5786C272.808 37.8561 273.269 37.1968 273.816 36.5992L272.858 35.7208C272.232 36.4032 271.706 37.1572 271.28 37.9814L272.435 38.5786ZM273.806 36.6097C274.368 36.0239 274.999 35.5639 275.7 35.2254L275.135 34.0546C274.289 34.4628 273.533 35.0161 272.868 35.7103L273.806 36.6097ZM275.716 35.2173C276.393 34.8671 277.13 34.69 277.937 34.69V33.39C276.931 33.39 275.988 33.6129 275.119 34.0627L275.716 35.2173ZM280.829 34.44V33.79H279.89L280.221 34.6691L280.829 34.44ZM285.469 34.44L286.085 34.2326L285.936 33.79H285.469V34.44ZM289.589 46.68L288.973 46.8874L288.975 46.8935L289.589 46.68ZM290.149 48.48L289.522 48.651L289.526 48.6641L289.53 48.6771L290.149 48.48ZM290.589 50.24L289.95 50.3563L289.953 50.3735L289.957 50.3906L290.589 50.24ZM290.909 51.92L290.266 52.0119L290.345 52.57H290.909V51.92ZM291.029 51.92V52.57H291.566L291.667 52.0428L291.029 51.92ZM291.589 49.48L292.219 49.6419L292.22 49.6376L291.589 49.48ZM292.389 46.64L291.77 46.4412L291.769 46.4451L292.389 46.64ZM296.309 34.44V33.79H295.835L295.69 34.2412L296.309 34.44ZM300.989 34.44L301.602 34.6563L301.908 33.79H300.989V34.44ZM292.349 58.92L292.96 59.1431L292.962 59.1363L292.349 58.92ZM290.509 62.48L289.984 62.0968L289.978 62.1048L289.973 62.113L290.509 62.48ZM287.949 64.8L287.646 64.2248L287.64 64.2282L287.949 64.8ZM282.789 65.48L282.896 64.8388L282.881 64.8363L282.865 64.8345L282.789 65.48ZM281.589 65.28H280.939V65.7971L281.443 65.9134L281.589 65.28ZM281.589 61.92L281.717 61.2826L280.939 61.1271V61.92H281.589ZM285.829 61.68L285.507 61.1156L285.507 61.1156L285.829 61.68ZM287.229 60.32L286.688 59.9594L286.681 59.971L287.229 60.32ZM288.149 58.32L287.535 58.1081L287.531 58.1177L287.528 58.1273L288.149 58.32ZM288.949 56L289.564 56.2119L289.64 55.9903L289.557 55.7709L288.949 56ZM280.829 35.09H285.469V33.79H280.829V35.09ZM284.853 34.6474L288.973 46.8874L290.205 46.4726L286.085 34.2326L284.853 34.6474ZM288.975 46.8935C289.184 47.4938 289.366 48.0796 289.522 48.651L290.776 48.309C290.612 47.7071 290.421 47.0929 290.203 46.4665L288.975 46.8935ZM289.53 48.6771C289.708 49.2381 289.848 49.7978 289.95 50.3563L291.229 50.1237C291.117 49.5089 290.963 48.8952 290.768 48.2829L289.53 48.6771ZM289.957 50.3906C290.086 50.9315 290.188 51.472 290.266 52.0119L291.553 51.8281C291.47 51.248 291.359 50.6685 291.221 50.0894L289.957 50.3906ZM290.909 52.57H291.029V51.27H290.909V52.57ZM291.667 52.0428C291.797 51.3663 291.981 50.5666 292.219 49.6419L290.96 49.3181C290.717 50.2601 290.527 51.087 290.391 51.7972L291.667 52.0428ZM292.22 49.6376C292.457 48.69 292.72 47.7558 293.009 46.8349L291.769 46.4451C291.472 47.3909 291.202 48.35 290.958 49.3224L292.22 49.6376ZM293.008 46.8388L296.928 34.6388L295.69 34.2412L291.77 46.4412L293.008 46.8388ZM296.309 35.09H300.989V33.79H296.309V35.09ZM300.376 34.2237L291.736 58.7037L292.962 59.1363L301.602 34.6563L300.376 34.2237ZM291.739 58.6969C291.249 60.038 290.662 61.1683 289.984 62.0968L291.034 62.8632C291.797 61.8184 292.436 60.5754 292.96 59.1431L291.739 58.6969ZM289.973 62.113C289.335 63.0454 288.559 63.7443 287.646 64.2248L288.252 65.3752C289.366 64.789 290.297 63.9413 291.046 62.847L289.973 62.113ZM287.64 64.2282C286.768 64.6994 285.693 64.95 284.389 64.95V66.25C285.858 66.25 287.157 65.9672 288.258 65.3718L287.64 64.2282ZM284.389 64.95C283.831 64.95 283.334 64.9119 282.896 64.8388L282.682 66.1212C283.204 66.2081 283.774 66.25 284.389 66.25V64.95ZM282.865 64.8345C282.429 64.7832 282.053 64.7201 281.735 64.6466L281.443 65.9134C281.818 65.9999 282.242 66.0702 282.713 66.1255L282.865 64.8345ZM282.239 65.28V61.92H280.939V65.28H282.239ZM281.462 62.5574C281.747 62.6144 282.095 62.6699 282.503 62.7243L282.675 61.4357C282.283 61.3834 281.965 61.3322 281.717 61.2826L281.462 62.5574ZM282.503 62.7243C282.933 62.7816 283.375 62.81 283.829 62.81V61.51C283.429 61.51 283.045 61.485 282.675 61.4357L282.503 62.7243ZM283.829 62.81C284.693 62.81 285.475 62.6307 286.152 62.2444L285.507 61.1156C285.063 61.3693 284.512 61.51 283.829 61.51V62.81ZM286.152 62.2444C286.81 61.8679 287.352 61.3376 287.777 60.669L286.681 59.971C286.359 60.4758 285.968 60.8521 285.507 61.1156L286.152 62.2444ZM287.77 60.6806C288.184 60.0595 288.515 59.3338 288.77 58.5127L287.528 58.1273C287.303 58.8528 287.021 59.4605 286.688 59.9594L287.77 60.6806ZM288.764 58.5319L289.564 56.2119L288.335 55.7881L287.535 58.1081L288.764 58.5319ZM289.557 55.7709L281.437 34.2109L280.221 34.6691L288.341 56.2291L289.557 55.7709Z" fill="#000A00"/>
</g>
<defs>
<filter id="filter0_d_25_5" x="14.5356" y="26.24" width="290.453" height="47.36" filterUnits="userSpaceOnUse" color-interpolation-filters="sRGB">
<feFlood flood-opacity="0" result="BackgroundImageFix"/>
<feColorMatrix in="SourceAlpha" type="matrix" values="0 0 0 0 0 0 0 0 0 0 0 0 0 0 0 0 0 0 127 0" result="hardAlpha"/>
<feOffset dy="4"/>
<feGaussianBlur stdDeviation="2"/>
<feComposite in2="hardAlpha" operator="out"/>
<feColorMatrix type="matrix" values="0 0 0 0 0 0 0 0 0 0 0 0 0 0 0 0 0 0 0.25 0"/>
<feBlend mode="normal" in2="BackgroundImageFix" result="effect1_dropShadow_25_5"/>
<feBlend mode="normal" in="SourceGraphic" in2="effect1_dropShadow_25_5" result="shape"/>
</filter>
</defs>
</svg>
